# xmcd CD database file
#
# Track frame offsets:
#	150
#	29293
#	41460
#	54500
#	66200
#	77833
#	90880
#	102953
#	116072
#	129422
#	139141
#	149736
#	161784
#	173381
#	184653
#	193236
#	204701
#	215465
#	227021
#	236904
#	249153
#	262265
#	270296
#	282677
#	295716
#
# Disc length: 4119 seconds
#
# Revision: 1
# Processed by: cddbd v1.5.2PL0 Copyright (c) Steve Scherf et al.
# Submitted via: jetAudio 7
#
DISCID=77101519
DTITLE=Various Artist - Atlantic Gold: 100 Soul Classics
DYEAR=2009
DGENRE=Soul
TTITLE0=Ray Charles - What'd I Say (pt 1 and 2)
TTITLE1=The Coasters - Poison Ivy
TTITLE2=Ben E. King - Spanish Harlem
TTITLE3=The Mar-Keys - Last Night
TTITLE4=The Drifters - Up On The Roof
TTITLE5=The Vibrations - My Girl Sloopy
TTITLE6=Barbara Lewis - Hello Stranger
TTITLE7=Ben E. King - Stand By Me
TTITLE8=The Coasters - Shoppin' For Clothes
TTITLE9=The Drifters - Only In America
TTITLE10=Richie Barrett - Some Other Guy
TTITLE11=Mel Torme - Comin' Home Baby
TTITLE12=The Drifters - Save The Last Dance For Me
TTITLE13=Doris Troy - Just One Look
TTITLE14=Solomon Burke - Stupidity
TTITLE15=Rufus Thomas - Walking The Dog
TTITLE16=Little Esther Phillips - Mojo Hannah
TTITLE17=Solomon Burke - If You Need Me
TTITLE18=Patti LaBelle and The Bluebelles - Groovy Kind of Love
TTITLE19=The Drifters - Under The Boardwalk
TTITLE20=Otis Redding - I've Been Loving You Too Long (To Stop Now)
TTITLE21=Doris Troy - What'Cha Gonna Do About It
TTITLE22=Solomon Burke - Everybody Needs Somebody To Love
TTITLE23=Carla Thomas - B-A-B-Y
TTITLE24=Don Covay - See-Saw
EXTD=
EXTT0=
EXTT1=
EXTT2=
EXTT3=
EXTT4=
EXTT5=
EXTT6=
EXTT7=
EXTT8=
EXTT9=
EXTT10=
EXTT11=
EXTT12=
EXTT13=
EXTT14=
EXTT15=
EXTT16=
EXTT17=
EXTT18=
EXTT19=
EXTT20=
EXTT21=
EXTT22=
EXTT23=
EXTT24=
PLAYORDER=
